<?xml version="1.0" encoding="utf-8"?>
<svg xmlns="http://www.w3.org/2000/svg" fill="none" height="56" viewBox="0 0 56 56" width="56">
<g clip-path="url(#clip0_66_307)">
<path d="M7.3766 16.7222C5.66223 16.7222 4.27246 15.3626 4.27246 13.6855C4.27246 12.0083 5.66223 10.6487 7.3766 10.6487H19.7932C21.5076 10.6487 22.8974 12.0083 22.8974 13.6855C22.8974 15.3626 21.5076 16.7222 19.7932 16.7222H7.3766Z" fill="#2DDB9C"/>
<path d="M5.29912 34.0982C4.08687 35.2841 2.12143 35.2841 0.909186 34.0982C-0.303062 32.9122 -0.303062 30.9895 0.909186 29.8036L9.68907 21.2144C10.9013 20.0285 12.8668 20.0285 14.079 21.2144C15.2912 22.4003 15.2912 24.3231 14.079 25.509L5.29912 34.0982Z" fill="#2DDB9C"/>
<path d="M16.6919 48.0098C16.6919 49.6869 15.3022 51.0465 13.5878 51.0465C11.8734 51.0466 10.4836 49.6869 10.4836 48.0098V35.8629C10.4836 34.1858 11.8734 32.8262 13.5878 32.8262C15.3022 32.8262 16.6919 34.1858 16.6919 35.8629V48.0098Z" fill="#2DDB9C"/>
<path d="M34.6317 50.2533C35.8439 51.4392 35.8439 53.3619 34.6317 54.5478C33.4195 55.7338 31.4541 55.7338 30.2418 54.5478L21.4619 45.9587C20.2497 44.7727 20.2497 42.85 21.4619 41.6641C22.6742 40.4782 24.6396 40.4782 25.8519 41.6641L34.6317 50.2533Z" fill="#2DDB9C"/>
<path d="M48.6731 38.8965C50.3875 38.8965 51.7773 40.2561 51.7773 41.9332C51.7773 43.6103 50.3875 44.9699 48.6731 44.9699H36.2565C34.5421 44.9699 33.1523 43.6103 33.1523 41.9332C33.1523 40.2561 34.5421 38.8965 36.2565 38.8965H48.6731Z" fill="#2DDB9C"/>
<path d="M50.7008 21.2161C51.913 20.0302 53.8785 20.0302 55.0907 21.2161C56.303 22.402 56.303 24.3248 55.0907 25.5107L46.3108 34.0999C45.0986 35.2857 43.1332 35.2857 41.9209 34.0999C40.7087 32.914 40.7087 30.9912 41.9209 29.8053L50.7008 21.2161Z" fill="#2DDB9C"/>
<path d="M39.2195 7.61341C39.2195 5.93625 40.6092 4.57666 42.3236 4.57666C44.038 4.57666 45.4278 5.93625 45.4278 7.61341V19.7603C45.4278 21.4374 44.038 22.797 42.3236 22.797C40.6092 22.797 39.2195 21.4374 39.2195 19.7603V7.61341Z" fill="#2DDB9C"/>
<path d="M21.4602 5.74799C20.248 4.56207 20.248 2.63932 21.4602 1.4534C22.6725 0.267486 24.6379 0.267486 25.8502 1.4534L34.63 10.0426C35.8423 11.2285 35.8423 13.1513 34.63 14.3372C33.4178 15.5231 31.4523 15.523 30.2401 14.3372L21.4602 5.74799Z" fill="#2DDB9C"/>
</g>
<defs>
<clipPath id="clip0_66_307">
<rect fill="white" height="56" width="56"/>
</clipPath>
</defs>
</svg>